<mxfile host="app.diagrams.net" agent="Mozilla/5.0 (Windows NT 10.0; Win64; x64) AppleWebKit/537.36 (KHTML, like Gecko) Chrome/138.0.0.0 Safari/537.36" version="28.0.7">
  <diagram name="Página-1" id="KNmywKsc4IFRDWh2PKOs">
    <mxGraphModel dx="1111" dy="449" grid="1" gridSize="10" guides="1" tooltips="1" connect="1" arrows="1" fold="1" page="1" pageScale="1" pageWidth="827" pageHeight="1169" math="0" shadow="0">
      <root>
        <mxCell id="0" />
        <mxCell id="1" parent="0" />
        <mxCell id="5oPdgTHN8nJl8k-OpPi6-1" style="edgeStyle=orthogonalEdgeStyle;rounded=0;orthogonalLoop=1;jettySize=auto;html=1;entryX=0;entryY=0.5;entryDx=0;entryDy=0;" edge="1" parent="1" source="5oPdgTHN8nJl8k-OpPi6-2" target="5oPdgTHN8nJl8k-OpPi6-3">
          <mxGeometry relative="1" as="geometry">
            <Array as="points">
              <mxPoint x="100" y="270" />
              <mxPoint x="100" y="30" />
            </Array>
          </mxGeometry>
        </mxCell>
        <mxCell id="5oPdgTHN8nJl8k-OpPi6-2" value="Estudante" style="shape=umlActor;verticalLabelPosition=bottom;verticalAlign=top;html=1;outlineConnect=0;" vertex="1" parent="1">
          <mxGeometry x="30" y="262" width="20" height="40" as="geometry" />
        </mxCell>
        <mxCell id="5oPdgTHN8nJl8k-OpPi6-3" value="&lt;div&gt;Criar&lt;/div&gt;cadastro" style="ellipse;whiteSpace=wrap;html=1;" vertex="1" parent="1">
          <mxGeometry x="170" width="90" height="60" as="geometry" />
        </mxCell>
        <mxCell id="5oPdgTHN8nJl8k-OpPi6-4" value="empréstimo" style="ellipse;whiteSpace=wrap;html=1;" vertex="1" parent="1">
          <mxGeometry x="430" y="162" width="90" height="60" as="geometry" />
        </mxCell>
        <mxCell id="5oPdgTHN8nJl8k-OpPi6-5" style="edgeStyle=orthogonalEdgeStyle;rounded=0;orthogonalLoop=1;jettySize=auto;html=1;" edge="1" parent="1" source="5oPdgTHN8nJl8k-OpPi6-6" target="5oPdgTHN8nJl8k-OpPi6-7">
          <mxGeometry relative="1" as="geometry">
            <Array as="points">
              <mxPoint x="620" y="560" />
              <mxPoint x="620" y="410" />
            </Array>
          </mxGeometry>
        </mxCell>
        <mxCell id="5oPdgTHN8nJl8k-OpPi6-6" value="&amp;nbsp;recompensa" style="ellipse;whiteSpace=wrap;html=1;" vertex="1" parent="1">
          <mxGeometry x="389" y="530" width="90" height="60" as="geometry" />
        </mxCell>
        <mxCell id="5oPdgTHN8nJl8k-OpPi6-7" value="" style="shape=cylinder3;whiteSpace=wrap;html=1;boundedLbl=1;backgroundOutline=1;size=15;" vertex="1" parent="1">
          <mxGeometry x="540" y="360" width="50" height="70" as="geometry" />
        </mxCell>
        <mxCell id="5oPdgTHN8nJl8k-OpPi6-8" value="&lt;font style=&quot;font-size: 10px;&quot;&gt;Banco de dados&lt;/font&gt;" style="text;html=1;align=center;verticalAlign=middle;whiteSpace=wrap;rounded=0;" vertex="1" parent="1">
          <mxGeometry x="543.5" y="432" width="46.5" height="20" as="geometry" />
        </mxCell>
        <mxCell id="5oPdgTHN8nJl8k-OpPi6-9" style="edgeStyle=orthogonalEdgeStyle;rounded=0;orthogonalLoop=1;jettySize=auto;html=1;exitX=1;exitY=0.5;exitDx=0;exitDy=0;" edge="1" parent="1" source="5oPdgTHN8nJl8k-OpPi6-10" target="5oPdgTHN8nJl8k-OpPi6-7">
          <mxGeometry relative="1" as="geometry">
            <Array as="points">
              <mxPoint x="420" y="502" />
              <mxPoint x="420" y="400" />
            </Array>
          </mxGeometry>
        </mxCell>
        <mxCell id="5oPdgTHN8nJl8k-OpPi6-10" value="Cadastrar livro&lt;div&gt;(ceder)&lt;/div&gt;" style="ellipse;whiteSpace=wrap;html=1;" vertex="1" parent="1">
          <mxGeometry x="230" y="472" width="90" height="60" as="geometry" />
        </mxCell>
        <mxCell id="5oPdgTHN8nJl8k-OpPi6-11" value="login" style="ellipse;whiteSpace=wrap;html=1;" vertex="1" parent="1">
          <mxGeometry x="160" y="360" width="90" height="60" as="geometry" />
        </mxCell>
        <mxCell id="5oPdgTHN8nJl8k-OpPi6-12" style="edgeStyle=orthogonalEdgeStyle;rounded=0;orthogonalLoop=1;jettySize=auto;html=1;" edge="1" parent="1" source="5oPdgTHN8nJl8k-OpPi6-13" target="5oPdgTHN8nJl8k-OpPi6-7">
          <mxGeometry relative="1" as="geometry">
            <mxPoint x="530" y="410" as="targetPoint" />
            <Array as="points">
              <mxPoint x="470" y="390" />
              <mxPoint x="470" y="390" />
            </Array>
          </mxGeometry>
        </mxCell>
        <mxCell id="5oPdgTHN8nJl8k-OpPi6-13" value="verificar saldo" style="ellipse;whiteSpace=wrap;html=1;" vertex="1" parent="1">
          <mxGeometry x="320" y="380" width="90" height="60" as="geometry" />
        </mxCell>
        <mxCell id="5oPdgTHN8nJl8k-OpPi6-14" style="edgeStyle=orthogonalEdgeStyle;rounded=0;orthogonalLoop=1;jettySize=auto;html=1;" edge="1" parent="1" source="5oPdgTHN8nJl8k-OpPi6-15" target="5oPdgTHN8nJl8k-OpPi6-7">
          <mxGeometry relative="1" as="geometry">
            <Array as="points">
              <mxPoint x="550" y="300" />
            </Array>
          </mxGeometry>
        </mxCell>
        <mxCell id="5oPdgTHN8nJl8k-OpPi6-15" value="acessar&amp;nbsp; armário" style="ellipse;whiteSpace=wrap;html=1;" vertex="1" parent="1">
          <mxGeometry x="250" y="270" width="90" height="60" as="geometry" />
        </mxCell>
        <mxCell id="5oPdgTHN8nJl8k-OpPi6-16" style="edgeStyle=orthogonalEdgeStyle;rounded=0;orthogonalLoop=1;jettySize=auto;html=1;" edge="1" parent="1" source="5oPdgTHN8nJl8k-OpPi6-17" target="5oPdgTHN8nJl8k-OpPi6-7">
          <mxGeometry relative="1" as="geometry">
            <Array as="points">
              <mxPoint x="630" y="380" />
            </Array>
          </mxGeometry>
        </mxCell>
        <mxCell id="5oPdgTHN8nJl8k-OpPi6-17" value="devolução" style="ellipse;whiteSpace=wrap;html=1;" vertex="1" parent="1">
          <mxGeometry x="590" y="162" width="90" height="60" as="geometry" />
        </mxCell>
        <mxCell id="5oPdgTHN8nJl8k-OpPi6-18" value="penalidade" style="ellipse;whiteSpace=wrap;html=1;" vertex="1" parent="1">
          <mxGeometry x="670" y="262" width="90" height="60" as="geometry" />
        </mxCell>
        <mxCell id="5oPdgTHN8nJl8k-OpPi6-19" value="" style="endArrow=classic;html=1;rounded=0;exitX=0;exitY=1;exitDx=0;exitDy=0;entryX=1;entryY=0;entryDx=0;entryDy=0;dashed=1;" edge="1" parent="1" source="5oPdgTHN8nJl8k-OpPi6-15" target="5oPdgTHN8nJl8k-OpPi6-11">
          <mxGeometry width="50" height="50" relative="1" as="geometry">
            <mxPoint x="200" y="162" as="sourcePoint" />
            <mxPoint x="250" y="112" as="targetPoint" />
          </mxGeometry>
        </mxCell>
        <mxCell id="5oPdgTHN8nJl8k-OpPi6-20" value="" style="endArrow=classic;html=1;rounded=0;exitX=0;exitY=0.5;exitDx=0;exitDy=0;entryX=1;entryY=0.5;entryDx=0;entryDy=0;dashed=1;" edge="1" parent="1" source="5oPdgTHN8nJl8k-OpPi6-13" target="5oPdgTHN8nJl8k-OpPi6-11">
          <mxGeometry width="50" height="50" relative="1" as="geometry">
            <mxPoint x="230" y="173" as="sourcePoint" />
            <mxPoint x="167" y="232" as="targetPoint" />
          </mxGeometry>
        </mxCell>
        <mxCell id="5oPdgTHN8nJl8k-OpPi6-21" value="" style="endArrow=classic;html=1;rounded=0;exitX=0.5;exitY=0;exitDx=0;exitDy=0;entryX=0.5;entryY=1;entryDx=0;entryDy=0;dashed=1;" edge="1" parent="1" source="5oPdgTHN8nJl8k-OpPi6-10" target="5oPdgTHN8nJl8k-OpPi6-11">
          <mxGeometry width="50" height="50" relative="1" as="geometry">
            <mxPoint x="293" y="222" as="sourcePoint" />
            <mxPoint x="230" y="281" as="targetPoint" />
          </mxGeometry>
        </mxCell>
        <mxCell id="5oPdgTHN8nJl8k-OpPi6-22" value="" style="endArrow=classic;html=1;rounded=0;exitX=0;exitY=0.5;exitDx=0;exitDy=0;entryX=1;entryY=0.5;entryDx=0;entryDy=0;dashed=1;" edge="1" parent="1" source="5oPdgTHN8nJl8k-OpPi6-4" target="5oPdgTHN8nJl8k-OpPi6-27">
          <mxGeometry width="50" height="50" relative="1" as="geometry">
            <mxPoint x="473" y="162" as="sourcePoint" />
            <mxPoint x="410" y="221" as="targetPoint" />
          </mxGeometry>
        </mxCell>
        <mxCell id="5oPdgTHN8nJl8k-OpPi6-23" value="" style="endArrow=classic;html=1;rounded=0;exitX=1;exitY=0.5;exitDx=0;exitDy=0;dashed=1;entryX=0;entryY=0.5;entryDx=0;entryDy=0;" edge="1" parent="1" source="5oPdgTHN8nJl8k-OpPi6-4" target="5oPdgTHN8nJl8k-OpPi6-17">
          <mxGeometry width="50" height="50" relative="1" as="geometry">
            <mxPoint x="573" y="112" as="sourcePoint" />
            <mxPoint x="720" y="82" as="targetPoint" />
          </mxGeometry>
        </mxCell>
        <mxCell id="5oPdgTHN8nJl8k-OpPi6-24" value="" style="endArrow=classic;html=1;rounded=0;exitX=0.5;exitY=0;exitDx=0;exitDy=0;entryX=1;entryY=1;entryDx=0;entryDy=0;dashed=1;" edge="1" parent="1" source="5oPdgTHN8nJl8k-OpPi6-18" target="5oPdgTHN8nJl8k-OpPi6-17">
          <mxGeometry width="50" height="50" relative="1" as="geometry">
            <mxPoint x="643" y="182" as="sourcePoint" />
            <mxPoint x="580" y="241" as="targetPoint" />
          </mxGeometry>
        </mxCell>
        <mxCell id="5oPdgTHN8nJl8k-OpPi6-25" value="" style="endArrow=classic;html=1;rounded=0;exitX=1;exitY=1;exitDx=0;exitDy=0;entryX=0;entryY=0.5;entryDx=0;entryDy=0;dashed=1;" edge="1" parent="1" source="5oPdgTHN8nJl8k-OpPi6-10" target="5oPdgTHN8nJl8k-OpPi6-6">
          <mxGeometry width="50" height="50" relative="1" as="geometry">
            <mxPoint x="473" y="212" as="sourcePoint" />
            <mxPoint x="410" y="271" as="targetPoint" />
          </mxGeometry>
        </mxCell>
        <mxCell id="5oPdgTHN8nJl8k-OpPi6-26" style="edgeStyle=orthogonalEdgeStyle;rounded=0;orthogonalLoop=1;jettySize=auto;html=1;" edge="1" parent="1" source="5oPdgTHN8nJl8k-OpPi6-27" target="5oPdgTHN8nJl8k-OpPi6-7">
          <mxGeometry relative="1" as="geometry">
            <Array as="points">
              <mxPoint x="330" y="260" />
              <mxPoint x="565" y="260" />
            </Array>
          </mxGeometry>
        </mxCell>
        <mxCell id="5oPdgTHN8nJl8k-OpPi6-27" value="ver livros disponíveis" style="ellipse;whiteSpace=wrap;html=1;" vertex="1" parent="1">
          <mxGeometry x="250" y="162" width="90" height="60" as="geometry" />
        </mxCell>
        <mxCell id="5oPdgTHN8nJl8k-OpPi6-28" value="" style="endArrow=classic;html=1;rounded=0;exitX=0.5;exitY=1;exitDx=0;exitDy=0;entryX=0.5;entryY=0;entryDx=0;entryDy=0;dashed=1;" edge="1" parent="1" source="5oPdgTHN8nJl8k-OpPi6-27" target="5oPdgTHN8nJl8k-OpPi6-15">
          <mxGeometry width="50" height="50" relative="1" as="geometry">
            <mxPoint x="406" y="111.17" as="sourcePoint" />
            <mxPoint x="330" y="111.17" as="targetPoint" />
          </mxGeometry>
        </mxCell>
        <mxCell id="5oPdgTHN8nJl8k-OpPi6-29" value="&lt;font style=&quot;font-size: 10px;&quot;&gt;&amp;lt;&amp;lt;extend&amp;gt;&amp;gt;&lt;/font&gt;" style="text;html=1;align=center;verticalAlign=middle;whiteSpace=wrap;rounded=0;" vertex="1" parent="1">
          <mxGeometry x="230" y="230" width="50" height="20" as="geometry" />
        </mxCell>
        <mxCell id="5oPdgTHN8nJl8k-OpPi6-30" value="&lt;font style=&quot;font-size: 10px;&quot;&gt;&amp;lt;&amp;lt;extend&amp;gt;&amp;gt;&lt;/font&gt;" style="text;html=1;align=center;verticalAlign=middle;whiteSpace=wrap;rounded=0;" vertex="1" parent="1">
          <mxGeometry x="364" y="170" width="50" height="20" as="geometry" />
        </mxCell>
        <mxCell id="5oPdgTHN8nJl8k-OpPi6-31" value="&lt;font style=&quot;font-size: 10px;&quot;&gt;&amp;lt;&amp;lt;extend&amp;gt;&amp;gt;&lt;/font&gt;" style="text;html=1;align=center;verticalAlign=middle;whiteSpace=wrap;rounded=0;" vertex="1" parent="1">
          <mxGeometry x="200" y="330" width="50" height="20" as="geometry" />
        </mxCell>
        <mxCell id="5oPdgTHN8nJl8k-OpPi6-32" value="&lt;font style=&quot;font-size: 10px;&quot;&gt;&amp;lt;&amp;lt;extend&amp;gt;&amp;gt;&lt;/font&gt;" style="text;html=1;align=center;verticalAlign=middle;whiteSpace=wrap;rounded=0;" vertex="1" parent="1">
          <mxGeometry x="270" y="380" width="50" height="20" as="geometry" />
        </mxCell>
        <mxCell id="5oPdgTHN8nJl8k-OpPi6-33" value="&lt;font style=&quot;font-size: 10px;&quot;&gt;&amp;lt;&amp;lt;extend&amp;gt;&amp;gt;&lt;/font&gt;" style="text;html=1;align=center;verticalAlign=middle;whiteSpace=wrap;rounded=0;" vertex="1" parent="1">
          <mxGeometry x="180" y="452" width="50" height="20" as="geometry" />
        </mxCell>
        <mxCell id="5oPdgTHN8nJl8k-OpPi6-34" value="&lt;font style=&quot;font-size: 10px;&quot;&gt;&amp;lt;&amp;lt;extend&amp;gt;&amp;gt;&lt;/font&gt;" style="text;html=1;align=center;verticalAlign=middle;whiteSpace=wrap;rounded=0;" vertex="1" parent="1">
          <mxGeometry x="640" y="230" width="50" height="20" as="geometry" />
        </mxCell>
        <mxCell id="5oPdgTHN8nJl8k-OpPi6-35" value="&lt;font style=&quot;font-size: 10px;&quot;&gt;&amp;lt;&amp;lt;include&amp;gt;&amp;gt;&lt;/font&gt;" style="text;html=1;align=center;verticalAlign=middle;whiteSpace=wrap;rounded=0;" vertex="1" parent="1">
          <mxGeometry x="310" y="540" width="50" height="20" as="geometry" />
        </mxCell>
        <mxCell id="5oPdgTHN8nJl8k-OpPi6-36" value="&lt;font style=&quot;font-size: 10px;&quot;&gt;&amp;lt;&amp;lt;include&amp;gt;&amp;gt;&lt;/font&gt;" style="text;html=1;align=center;verticalAlign=middle;whiteSpace=wrap;rounded=0;" vertex="1" parent="1">
          <mxGeometry x="530" y="170" width="50" height="20" as="geometry" />
        </mxCell>
        <mxCell id="5oPdgTHN8nJl8k-OpPi6-37" style="edgeStyle=orthogonalEdgeStyle;rounded=0;orthogonalLoop=1;jettySize=auto;html=1;entryX=0;entryY=0.667;entryDx=0;entryDy=0;entryPerimeter=0;" edge="1" parent="1" source="5oPdgTHN8nJl8k-OpPi6-2" target="5oPdgTHN8nJl8k-OpPi6-11">
          <mxGeometry relative="1" as="geometry" />
        </mxCell>
        <mxCell id="5oPdgTHN8nJl8k-OpPi6-38" style="edgeStyle=orthogonalEdgeStyle;rounded=0;orthogonalLoop=1;jettySize=auto;html=1;" edge="1" parent="1" source="5oPdgTHN8nJl8k-OpPi6-4" target="5oPdgTHN8nJl8k-OpPi6-7">
          <mxGeometry relative="1" as="geometry">
            <Array as="points">
              <mxPoint x="475" y="230" />
              <mxPoint x="580" y="230" />
            </Array>
          </mxGeometry>
        </mxCell>
        <mxCell id="5oPdgTHN8nJl8k-OpPi6-39" style="edgeStyle=orthogonalEdgeStyle;rounded=0;orthogonalLoop=1;jettySize=auto;html=1;" edge="1" parent="1" source="5oPdgTHN8nJl8k-OpPi6-18" target="5oPdgTHN8nJl8k-OpPi6-7">
          <mxGeometry relative="1" as="geometry">
            <Array as="points">
              <mxPoint x="715" y="390" />
            </Array>
          </mxGeometry>
        </mxCell>
        <mxCell id="5oPdgTHN8nJl8k-OpPi6-40" style="edgeStyle=orthogonalEdgeStyle;rounded=0;orthogonalLoop=1;jettySize=auto;html=1;" edge="1" parent="1" source="5oPdgTHN8nJl8k-OpPi6-3" target="5oPdgTHN8nJl8k-OpPi6-7">
          <mxGeometry relative="1" as="geometry">
            <Array as="points">
              <mxPoint x="770" y="30" />
              <mxPoint x="770" y="400" />
            </Array>
          </mxGeometry>
        </mxCell>
        <mxCell id="5oPdgTHN8nJl8k-OpPi6-41" value="" style="endArrow=classic;html=1;rounded=0;dashed=1;entryX=1;entryY=1;entryDx=0;entryDy=0;exitX=1;exitY=0;exitDx=0;exitDy=0;" edge="1" parent="1" source="5oPdgTHN8nJl8k-OpPi6-4" target="5oPdgTHN8nJl8k-OpPi6-6">
          <mxGeometry width="50" height="50" relative="1" as="geometry">
            <mxPoint x="471" y="182" as="sourcePoint" />
            <mxPoint x="430" y="610" as="targetPoint" />
            <Array as="points">
              <mxPoint x="507" y="150" />
              <mxPoint x="612" y="150" />
              <mxPoint x="790" y="150" />
              <mxPoint x="790" y="620" />
              <mxPoint x="465" y="620" />
            </Array>
          </mxGeometry>
        </mxCell>
        <mxCell id="5oPdgTHN8nJl8k-OpPi6-42" value="&lt;font style=&quot;font-size: 10px;&quot;&gt;&amp;lt;&amp;lt;include&amp;gt;&amp;gt;&lt;/font&gt;" style="text;html=1;align=center;verticalAlign=middle;whiteSpace=wrap;rounded=0;" vertex="1" parent="1">
          <mxGeometry x="730" y="472" width="50" height="20" as="geometry" />
        </mxCell>
        <mxCell id="5oPdgTHN8nJl8k-OpPi6-43" value="&lt;div&gt;Notificação&lt;/div&gt;" style="ellipse;whiteSpace=wrap;html=1;" vertex="1" parent="1">
          <mxGeometry x="430" y="40" width="90" height="60" as="geometry" />
        </mxCell>
        <mxCell id="5oPdgTHN8nJl8k-OpPi6-44" value="" style="endArrow=classic;html=1;rounded=0;entryX=0.5;entryY=1;entryDx=0;entryDy=0;dashed=1;exitX=0.5;exitY=0;exitDx=0;exitDy=0;" edge="1" parent="1" source="5oPdgTHN8nJl8k-OpPi6-4" target="5oPdgTHN8nJl8k-OpPi6-43">
          <mxGeometry width="50" height="50" relative="1" as="geometry">
            <mxPoint x="500" y="120" as="sourcePoint" />
            <mxPoint x="370" y="118" as="targetPoint" />
          </mxGeometry>
        </mxCell>
        <mxCell id="5oPdgTHN8nJl8k-OpPi6-45" value="&lt;font style=&quot;font-size: 10px;&quot;&gt;&amp;lt;&amp;lt;include&amp;gt;&amp;gt;&lt;/font&gt;" style="text;html=1;align=center;verticalAlign=middle;whiteSpace=wrap;rounded=0;" vertex="1" parent="1">
          <mxGeometry x="414" y="110" width="50" height="20" as="geometry" />
        </mxCell>
        <mxCell id="5oPdgTHN8nJl8k-OpPi6-46" value="" style="endArrow=classic;html=1;rounded=0;entryX=1;entryY=1;entryDx=0;entryDy=0;dashed=1;exitX=0;exitY=0;exitDx=0;exitDy=0;" edge="1" parent="1" source="5oPdgTHN8nJl8k-OpPi6-17" target="5oPdgTHN8nJl8k-OpPi6-43">
          <mxGeometry width="50" height="50" relative="1" as="geometry">
            <mxPoint x="630" y="130" as="sourcePoint" />
            <mxPoint x="576" y="170" as="targetPoint" />
          </mxGeometry>
        </mxCell>
        <mxCell id="5oPdgTHN8nJl8k-OpPi6-47" value="&lt;font style=&quot;font-size: 10px;&quot;&gt;&amp;lt;&amp;lt;include&amp;gt;&amp;gt;&lt;/font&gt;" style="text;html=1;align=center;verticalAlign=middle;whiteSpace=wrap;rounded=0;" vertex="1" parent="1">
          <mxGeometry x="550" y="110" width="50" height="20" as="geometry" />
        </mxCell>
        <mxCell id="5oPdgTHN8nJl8k-OpPi6-49" value="&lt;font style=&quot;font-size: 10px;&quot;&gt;&amp;lt;&amp;lt;include&amp;gt;&amp;gt;&lt;/font&gt;" style="text;html=1;align=center;verticalAlign=middle;whiteSpace=wrap;rounded=0;" vertex="1" parent="1">
          <mxGeometry x="650" y="50" width="50" height="20" as="geometry" />
        </mxCell>
        <mxCell id="5oPdgTHN8nJl8k-OpPi6-50" value="&lt;font style=&quot;font-size: 10px;&quot;&gt;&amp;lt;&amp;lt;include&amp;gt;&amp;gt;&lt;/font&gt;" style="text;html=1;align=center;verticalAlign=middle;whiteSpace=wrap;rounded=0;" vertex="1" parent="1">
          <mxGeometry x="610" y="650" width="50" height="20" as="geometry" />
        </mxCell>
        <mxCell id="5oPdgTHN8nJl8k-OpPi6-51" value="" style="endArrow=classic;html=1;rounded=0;entryX=1;entryY=0.5;entryDx=0;entryDy=0;dashed=1;exitX=0.5;exitY=0;exitDx=0;exitDy=0;" edge="1" parent="1" source="5oPdgTHN8nJl8k-OpPi6-18" target="5oPdgTHN8nJl8k-OpPi6-43">
          <mxGeometry width="50" height="50" relative="1" as="geometry">
            <mxPoint x="706" y="140" as="sourcePoint" />
            <mxPoint x="610" y="60" as="targetPoint" />
            <Array as="points">
              <mxPoint x="715" y="70" />
            </Array>
          </mxGeometry>
        </mxCell>
        <mxCell id="5oPdgTHN8nJl8k-OpPi6-52" value="" style="endArrow=classic;html=1;rounded=0;dashed=1;exitX=0.5;exitY=1;exitDx=0;exitDy=0;entryX=0;entryY=0.5;entryDx=0;entryDy=0;" edge="1" parent="1" source="5oPdgTHN8nJl8k-OpPi6-3" target="5oPdgTHN8nJl8k-OpPi6-43">
          <mxGeometry width="50" height="50" relative="1" as="geometry">
            <mxPoint x="217.5" y="65" as="sourcePoint" />
            <mxPoint x="432.5" y="75" as="targetPoint" />
            <Array as="points">
              <mxPoint x="215" y="70" />
            </Array>
          </mxGeometry>
        </mxCell>
        <mxCell id="5oPdgTHN8nJl8k-OpPi6-53" value="&lt;font style=&quot;font-size: 10px;&quot;&gt;&amp;lt;&amp;lt;include&amp;gt;&amp;gt;&lt;/font&gt;" style="text;html=1;align=center;verticalAlign=middle;whiteSpace=wrap;rounded=0;" vertex="1" parent="1">
          <mxGeometry x="300" y="70" width="50" height="20" as="geometry" />
        </mxCell>
        <mxCell id="5oPdgTHN8nJl8k-OpPi6-54" value="" style="endArrow=classic;html=1;rounded=0;dashed=1;exitX=0.5;exitY=1;exitDx=0;exitDy=0;entryX=0.5;entryY=0;entryDx=0;entryDy=0;" edge="1" parent="1" source="5oPdgTHN8nJl8k-OpPi6-6" target="5oPdgTHN8nJl8k-OpPi6-43">
          <mxGeometry width="50" height="50" relative="1" as="geometry">
            <mxPoint x="350" y="620" as="sourcePoint" />
            <mxPoint x="480" y="10" as="targetPoint" />
            <Array as="points">
              <mxPoint x="434" y="650" />
              <mxPoint x="810" y="650" />
              <mxPoint x="810" y="140" />
              <mxPoint x="810" y="10" />
              <mxPoint x="475" y="10" />
            </Array>
          </mxGeometry>
        </mxCell>
      </root>
    </mxGraphModel>
  </diagram>
</mxfile>
